<svg width="16" height="16" viewBox="0 0 16 16" fill="none" xmlns="http://www.w3.org/2000/svg">
<rect x="0.5" y="0.5" width="15" height="15" rx="7.5" fill="#2D9CDB" stroke="white"/>
<path d="M5.72476 9.08821H8.92476V8.28821H5.72476V9.08821ZM5.72476 7.88821H10.5248V7.08821H5.72476V7.88821ZM5.72476 6.68821H10.5248V5.88821H5.72476V6.68821ZM4.12476 12.2882V5.08821C4.12476 4.86821 4.20316 4.67981 4.35996 4.52301C4.51649 4.36647 4.70476 4.28821 4.92476 4.28821H11.3248C11.5448 4.28821 11.7332 4.36647 11.89 4.52301C12.0465 4.67981 12.1248 4.86821 12.1248 5.08821V9.88821C12.1248 10.1082 12.0465 10.2966 11.89 10.4534C11.7332 10.6099 11.5448 10.6882 11.3248 10.6882H5.72476L4.12476 12.2882ZM4.92476 10.3582L5.39476 9.88821H11.3248V5.08821H4.92476V10.3582Z" fill="white"/>
</svg>
