<svg width="12" height="12" viewBox="0 0 12 12" fill="none" xmlns="http://www.w3.org/2000/svg">
<mask id="mask0_824_2614" style="mask-type:alpha" maskUnits="userSpaceOnUse" x="0" y="0" width="12" height="12">
<rect width="12" height="12" fill="#D9D9D9"/>
</mask>
<g mask="url(#mask0_824_2614)">
<path d="M7.25 9C6.9 9 6.60417 8.87917 6.3625 8.6375C6.12083 8.39583 6 8.1 6 7.75C6 7.4 6.12083 7.10417 6.3625 6.8625C6.60417 6.62083 6.9 6.5 7.25 6.5C7.6 6.5 7.89583 6.62083 8.1375 6.8625C8.37917 7.10417 8.5 7.4 8.5 7.75C8.5 8.1 8.37917 8.39583 8.1375 8.6375C7.89583 8.87917 7.6 9 7.25 9ZM2.5 11C2.225 11 1.9895 10.9022 1.7935 10.7065C1.59783 10.5105 1.5 10.275 1.5 10V3C1.5 2.725 1.59783 2.48967 1.7935 2.294C1.9895 2.098 2.225 2 2.5 2H3V1H4V2H8V1H9V2H9.5C9.775 2 10.0105 2.098 10.2065 2.294C10.4022 2.48967 10.5 2.725 10.5 3V10C10.5 10.275 10.4022 10.5105 10.2065 10.7065C10.0105 10.9022 9.775 11 9.5 11H2.5ZM2.5 10H9.5V5H2.5V10ZM2.5 4H9.5V3H2.5V4Z" fill="#4F4F4F"/>
</g>
</svg>
