<svg width="16" height="16" viewBox="0 0 16 16" fill="none" xmlns="http://www.w3.org/2000/svg">
<rect width="16" height="16" rx="4" fill="#2D9CDB"/>
<mask id="mask0_1005_731" style="mask-type:alpha" maskUnits="userSpaceOnUse" x="0" y="0" width="16" height="16">
<rect width="16" height="16" fill="#1C1B1F"/>
</mask>
<g mask="url(#mask0_1005_731)">
<path d="M8.14286 13.7143C7.89524 13.7143 7.67143 13.6549 7.47143 13.536C7.27143 13.4168 7.11429 13.2572 7 13.0572C6.68571 13.0572 6.41676 12.9453 6.19314 12.7217C5.96914 12.4977 5.85714 12.2286 5.85714 11.9143V9.88572C5.29524 9.51429 4.84533 9.02382 4.50743 8.41429C4.16914 7.80477 4 7.14286 4 6.42858C4 5.2762 4.40229 4.29753 5.20686 3.49258C6.01181 2.68801 6.99048 2.28572 8.14286 2.28572C9.29524 2.28572 10.2737 2.68801 11.0783 3.49258C11.8832 4.29753 12.2857 5.2762 12.2857 6.42858C12.2857 7.16191 12.1168 7.82858 11.7789 8.42858C11.4406 9.02858 10.9905 9.51429 10.4286 9.88572V11.9143C10.4286 12.2286 10.3168 12.4977 10.0931 12.7217C9.86914 12.9453 9.6 13.0572 9.28571 13.0572C9.17143 13.2572 9.01429 13.4168 8.81429 13.536C8.61429 13.6549 8.39048 13.7143 8.14286 13.7143ZM7 11.9143H9.28571V11.4H7V11.9143ZM7 10.8286H9.28571V10.2857H7V10.8286ZM6.88571 9.14286H7.71429V7.60001L6.45714 6.34286L7.05714 5.74286L8.14286 6.82858L9.22857 5.74286L9.82857 6.34286L8.57143 7.60001V9.14286H9.4C9.91429 8.89524 10.3333 8.53086 10.6571 8.04972C10.981 7.56896 11.1429 7.02858 11.1429 6.42858C11.1429 5.59048 10.8524 4.88096 10.2714 4.30001C9.69048 3.71905 8.98095 3.42858 8.14286 3.42858C7.30476 3.42858 6.59524 3.71905 6.01429 4.30001C5.43333 4.88096 5.14286 5.59048 5.14286 6.42858C5.14286 7.02858 5.30476 7.56896 5.62857 8.04972C5.95238 8.53086 6.37143 8.89524 6.88571 9.14286Z" fill="white"/>
</g>
</svg>
