<svg width="14" height="10" viewBox="0 0 14 10" fill="none" xmlns="http://www.w3.org/2000/svg">
<path d="M8.2564 3.39492V2.77441C8.61451 2.59322 8.99805 2.45732 9.40703 2.36672C9.81601 2.27612 10.2359 2.23082 10.6666 2.23082C10.9128 2.23082 11.1491 2.24663 11.3756 2.27826C11.6021 2.30988 11.8359 2.35475 12.0769 2.41287V3.01801C11.8444 2.94365 11.6177 2.89216 11.3968 2.86352C11.1758 2.83489 10.9325 2.82057 10.6666 2.82057C10.2359 2.82057 9.81537 2.86908 9.40511 2.96609C8.99486 3.06309 8.61195 3.20603 8.2564 3.39492ZM8.2564 7.03596V6.38981C8.59742 6.20861 8.97882 6.07271 9.40061 5.98211C9.82241 5.89151 10.2444 5.84621 10.6666 5.84621C10.9128 5.84621 11.1491 5.86202 11.3756 5.89364C11.6021 5.92526 11.8359 5.97013 12.0769 6.02826V6.63339C11.8444 6.55903 11.6177 6.50754 11.3968 6.47891C11.1758 6.45027 10.9325 6.43596 10.6666 6.43596C10.2359 6.43596 9.81537 6.4881 9.40511 6.59237C8.99486 6.69664 8.61195 6.8445 8.2564 7.03596ZM8.2564 5.22826V4.58211C8.61451 4.40091 8.99805 4.26501 9.40703 4.17441C9.81601 4.08382 10.2359 4.03852 10.6666 4.03852C10.9128 4.03852 11.1491 4.05433 11.3756 4.08596C11.6021 4.11758 11.8359 4.16245 12.0769 4.22057V4.82571C11.8444 4.75134 11.6177 4.69984 11.3968 4.67121C11.1758 4.64257 10.9325 4.62826 10.6666 4.62826C10.2359 4.62826 9.81537 4.68103 9.40511 4.78659C8.99486 4.89214 8.61195 5.03937 8.2564 5.22826ZM3.33331 7.69236C3.91537 7.69236 4.4814 7.75924 5.0314 7.89301C5.5814 8.02676 6.12648 8.2445 6.66665 8.54621V2.00519C6.18545 1.6616 5.6551 1.40391 5.07561 1.23211C4.49614 1.06032 3.91537 0.974422 3.33331 0.974422C2.93331 0.974422 2.5831 0.99835 2.28266 1.04621C1.98224 1.09407 1.6487 1.18296 1.28203 1.31287C1.17946 1.34706 1.10681 1.39621 1.06408 1.46031C1.02135 1.52442 0.99998 1.59493 0.99998 1.67186V7.68211C0.99998 7.80176 1.04271 7.88937 1.12818 7.94492C1.21366 8.00048 1.30767 8.00689 1.41023 7.96416C1.65382 7.88211 1.93523 7.8163 2.25446 7.76672C2.5737 7.71715 2.93331 7.69236 3.33331 7.69236ZM7.33331 8.54621C7.87348 8.2445 8.41856 8.02676 8.96856 7.89301C9.51856 7.75924 10.0846 7.69236 10.6666 7.69236C11.0666 7.69236 11.4263 7.71715 11.7455 7.76672C12.0647 7.8163 12.3461 7.88211 12.5897 7.96416C12.6923 8.00689 12.7863 8.00048 12.8718 7.94492C12.9572 7.88937 13 7.80176 13 7.68211V1.67186C13 1.59493 12.9786 1.52656 12.9359 1.46672C12.8931 1.40689 12.8205 1.35561 12.7179 1.31287C12.3513 1.18296 12.0177 1.09407 11.7173 1.04621C11.4169 0.99835 11.0666 0.974422 10.6666 0.974422C10.0846 0.974422 9.50382 1.06032 8.92435 1.23211C8.34486 1.40391 7.81451 1.6616 7.33331 2.00519V8.54621ZM6.99998 9.51289C6.4581 9.14195 5.87605 8.8569 5.25383 8.65776C4.63161 8.45861 3.99144 8.35904 3.33331 8.35904C2.9863 8.35904 2.64549 8.3881 2.31088 8.44622C1.97626 8.50433 1.6504 8.5975 1.33331 8.72571C1.09144 8.82228 0.864296 8.79322 0.651896 8.63852C0.439507 8.48382 0.333313 8.27015 0.333313 7.99751V1.55391C0.333313 1.38894 0.376685 1.23595 0.46343 1.09492C0.550185 0.953901 0.671769 0.855612 0.82818 0.800056C1.21964 0.6274 1.6269 0.502184 2.04998 0.424406C2.47306 0.346628 2.90084 0.307739 3.33331 0.307739C3.9863 0.307739 4.62327 0.401755 5.24421 0.589789C5.86515 0.777822 6.4504 1.05133 6.99998 1.41031C7.54956 1.05133 8.13481 0.777822 8.75575 0.589789C9.37669 0.401755 10.0137 0.307739 10.6666 0.307739C11.0991 0.307739 11.5269 0.346628 11.95 0.424406C12.3731 0.502184 12.7803 0.6274 13.1718 0.800056C13.3282 0.855612 13.4498 0.953901 13.5365 1.09492C13.6233 1.23595 13.6666 1.38894 13.6666 1.55391V7.99751C13.6666 8.27015 13.5519 8.47955 13.3224 8.62571C13.0929 8.77186 12.8487 8.79665 12.5897 8.70006C12.2812 8.5804 11.966 8.49365 11.6442 8.43981C11.3224 8.38596 10.9966 8.35904 10.6666 8.35904C10.0085 8.35904 9.36835 8.45861 8.74613 8.65776C8.12391 8.8569 7.54186 9.14195 6.99998 9.51289Z" fill="#1C1B1F"/>
</svg>
